<?xml version="1.0" encoding="UTF-8"?>
<svg id="Layer_8" data-name="Layer 8" xmlns="http://www.w3.org/2000/svg" xmlns:xlink="http://www.w3.org/1999/xlink" viewBox="0 0 1000 1000">
  <defs>
    <style>
      .cls-1 {
        clip-path: url(#clippath-2);
      }

      .cls-2 {
        clip-path: url(#clippath-1);
      }

      .cls-3 {
        clip-path: url(#clippath-4);
      }

      .cls-4 {
        clip-path: url(#clippath);
      }

      .cls-5 {
        opacity: .12;
      }

      .cls-6 {
        fill: none;
      }

      .cls-7 {
        clip-path: url(#clippath-3);
      }
    </style>
    <clipPath id="clippath">
      <path class="cls-6" d="m337.4,440.02l282.29,120.83,130.39-120.83-44.39-94.87s-302.4,52.42-368.29,94.87Z"/>
    </clipPath>
    <clipPath id="clippath-1">
      <path class="cls-6" d="m690.8,374.88s-214.75,29.19-330.58,84.34l249,101.62,72.83,22.04s68.04-74.06,8.76-208.01Z"/>
    </clipPath>
    <clipPath id="clippath-2">
      <polygon class="cls-6" points="237.44 469.55 700.13 345.81 587.47 220.74 287.82 245.24 237.44 469.55"/>
    </clipPath>
    <clipPath id="clippath-3">
      <path class="cls-6" d="m696.56,374.88s-214.75,29.19-330.58,84.34l249,101.62,72.83,22.04s68.04-74.06,8.76-208.01Z"/>
    </clipPath>
    <clipPath id="clippath-4">
      <polygon class="cls-6" points="243.19 469.55 705.88 345.81 593.22 220.74 293.57 245.24 243.19 469.55"/>
    </clipPath>
  </defs>
  <g>
    <path d="m293.39,434.84c-5.69,2.32-70.25,29.67-92.2,40.17-14.26,6.83-27.97,15.01-39.94,25.77-4.79,4.31-9.22,9.29-12.85,14.68-5.73,8.5-5.28,17.83-.79,26.88,3.08,6.22,8.38,9.92,14.3,12.74,11.06,5.24,22.86,7.2,34.82,8.04,28.23,1.98,56.32-.38,84.35-3.63,3.64-.41,7.25-.94,11.54-1.49l-10.84-29.16c-5.43.68-10.33,1.32-15.22,1.93-23.03,2.88-46.15,3.71-69.28,2.28-7.2-.45-14.76-.8-22.25-5.56,3.8-3.27,6.8-6.42,10.3-8.73,7.41-4.89,14.9-9.71,22.69-13.9,36.94-19.83,79.9-36.8,119.02-51.09.58-.21-31.39-17.47-33.67-18.94Z"/>
    <path d="m753.05,392.9c-15.32,8.18-31.26,15.09-47.79,22.97l5.29,30.44,59.48-28.37c17.05-8.5,33.62-18.08,48.09-30.94,5.21-4.63,10.09-10.01,13.93-15.89,6.42-9.83,4.28-20.97-3.71-29.37-11.92-12.54-37.09-13.83-48.16-13.65-224.73,3.54-451.12,92.71-452.2,92.43-11.86,4.34-23.03,9.61-34.61,14.33,2.28,1.47,36.63,20.68,39.31,22,18.25,8.98,36.42,18.12,54.77,26.83,51.53,24.44,104.08,46.25,157.53,65.65,63.45,23.02,127.22,45.09,193.82,56.21,15.93,2.66,32.22,3.49,48.37,4.14,10.06.39,20.17-1.47,29.39-6.33,13.06-6.91,17.65-20.74,11.38-34.51-1.71-3.74-3.77-7.47-6.39-10.54-5.47-6.42-11.04-12.85-17.21-18.51-19.07-17.49-40.55-31.42-62.37-44.78-9.82-6.02-19.79-11.78-29.74-17.67-1.17,4.41-1.31,9.36-1.31,14.33,0,1.39.01,2.76.01,4.13,0,5.45-.15,10.77-1.67,15.35,24.95,9.18,83.28,52.99,90.23,68.69-36.7,3.18-70.71-6.45-105.93-14.34-43.24-10.69-264.08-93.69-326.95-124.84,18.4-5.72,34.71-11.34,51.31-15.82,43.9-11.88,87.67-24.49,131.97-34.5,42.76-9.67,86.04-16.86,129.21-24.42,34.63-6.06,69.57-9.26,104.75-8.04,2.85.1,7.14.81,10.85,1.62,3.51.77,4.56,5.37,1.65,7.47-.38.27-.76.53-1.16.78-13.97,8.56-27.75,17.51-42.16,25.2Z"/>
    <path d="m324.03,323.33c-20.91-5.2-41.9-10.09-62.96-14.56-20.34-4.31-40.88-7.43-61.73-5.88-4.96.37-10.04,1.45-14.7,3.23-9.65,3.68-15,12.56-14.97,23.28.01,7.28,2.19,14,6.64,19.26,7.72,9.13,15.57,18.32,24.46,26.13,21.66,19.03,45.97,34,70.53,48.53,1.15.68,14.47,7.54,20.94,10.84.38.19.77.42,1.15.67,11.58-4.72,22.75-9.99,34.61-14.33-3.01-.81-45.57-23.39-46.89-26.04-28.35-17.4-57.13-34.28-80.55-59.98,3.01-2.97,6.08-2.39,8.7-2.11,15.53,1.72,31.15,3.03,46.52,5.79,14.39,2.58,46.14,9.6,48.14,9.98,3.38-5.34,12.94-17.26,20.11-24.82Z"/>
    <path d="m710.56,446.31l-.07.48c-.01-.15-.01-.29-.03-.43.03-.01.07-.03.09-.04Z"/>
  </g>
  <path d="m273.24,483.72c12.95,125.98,108.17,207.91,219.33,207.91,71.19,0,134.47-33.79,174.71-86.2-12.46-3.43-25.3-7.14-38.43-11.11-3.61,13.28-11.63,25.46-23.69,34.11-27.84,19.97-66.6,13.59-86.57-14.25-12.89-17.97-14.79-40.48-7.04-59.56-7.44-2.77-14.91-5.6-22.43-8.49-9.76-3.76-19.4-7.55-28.91-11.38,20.01,21.39,22.61,54.65,4.62,79.1-20.31,27.6-59.14,33.51-86.74,13.2-27.6-20.31-33.51-59.14-13.2-86.74,11.74-15.95,29.67-24.64,48.05-25.22-17.92-7.72-35.23-15.48-51.86-23.25-4.17-.48-8.35-1.39-12.49-2.76-9.46-3.14-24-16.28-30.61-22.87-12.49,3.85-33.41,11.82-44.73,17.51Z"/>
  <g class="cls-4">
    <g>
      <path d="m708.71,427.62c-3.75-18.53-9.82-36.21-17.9-52.74-11.84,1.32-24.7,3.08-38.47,5.26,11.3,7.54,20.21,18.81,24.65,32.76,2.88,9.06,3.57,18.29,2.37,27.12,10.54-4.22,20.34-8.36,29.35-12.4Z"/>
      <path d="m507.53,491.5c5.21-3.8,12.09-3.64,17.07-.11,17.33-4.87,34.17-9.84,50.36-14.86-7.27-6.94-12.94-15.75-16.21-26-6.03-18.94-2.47-38.62,7.94-53.85-26.54,5.91-54.59,12.81-83.5,20.61-18.09,4.88-35.71,9.9-52.72,15-.2,5.79-1.2,11.66-3.12,17.44-10.79,32.52-45.89,50.14-78.42,39.36-11.6-3.85-21.29-10.8-28.49-19.62-17.51,6.75-33.28,13.35-46.98,19.67,1.42,17.85,4.97,35.09,10.39,51.49,26.37-2.35,59.06-7.26,95.93-14.46,13.8-9.6,30.92-13.14,47.26-9.98,9.62-2.18,19.44-4.48,29.41-6.91-2.01-4.59-1.62-10.09,1.53-14.44,4.73-6.54,13.88-8.01,20.42-3.27,3.61,2.61,5.67,6.57,5.99,10.69,6.09-1.58,12.23-3.2,18.41-4.86,1-2.27,2.59-4.32,4.74-5.89Zm18.3-46.17c7.68-2.51,15.93,1.68,18.44,9.35s-1.68,15.93-9.35,18.44c-7.68,2.51-15.93-1.68-18.44-9.35-2.51-7.68,1.68-15.93,9.35-18.44Zm-56.5,18.53c-2.48,7.68-10.72,11.9-18.41,9.42-7.68-2.48-11.9-10.72-9.42-18.41,2.48-7.68,10.72-11.9,18.41-9.42s11.9,10.72,9.42,18.41Zm23.49-46.42c8.08-.02,14.63,6.52,14.65,14.59.02,8.08-6.52,14.63-14.59,14.65-8.08.02-14.63-6.52-14.65-14.59-.02-8.08,6.52-14.63,14.59-14.65Zm-16.21,54.03c0-9.01,7.3-16.31,16.31-16.31s16.31,7.3,16.31,16.31-7.3,16.31-16.31,16.31-16.31-7.3-16.31-16.31Z"/>
    </g>
  </g>
  <g class="cls-2">
    <path d="m492.95,251.31c-121.59,0-220.16,98.57-220.16,220.16s98.57,220.16,220.16,220.16,220.16-98.57,220.16-220.16-98.57-220.16-220.16-220.16Zm1.17,27c34.26.21,61.87,28.15,61.66,62.42-.21,34.26-28.15,61.87-62.42,61.66s-61.87-28.15-61.66-62.42c.21-34.26,28.15-61.87,62.42-61.66Zm40.83,194.81c-7.68,2.51-15.93-1.68-18.44-9.35-2.51-7.68,1.68-15.93,9.35-18.44,7.68-2.51,15.93,1.68,18.44,9.35,2.51,7.68-1.68,15.93-9.35,18.44Zm-27.45-41.08c.02,8.08-6.52,14.63-14.59,14.65-8.08.02-14.63-6.52-14.65-14.59-.02-8.08,6.52-14.63,14.59-14.65,8.08-.02,14.63,6.52,14.65,14.59Zm-38.14,31.82c-2.48,7.68-10.72,11.9-18.41,9.42-7.68-2.48-11.9-10.72-9.42-18.41,2.48-7.68,10.72-11.9,18.41-9.42,7.68,2.48,11.9,10.72,9.42,18.41Zm-159.75-53.19c10.79-32.52,45.89-50.14,78.42-39.36,32.52,10.79,50.14,45.89,39.36,78.42-10.79,32.52-45.89,50.14-78.42,39.36-32.52-10.79-50.14-45.89-39.36-78.42Zm155.6,203.19c-20.31,27.6-59.14,33.51-86.74,13.2-27.6-20.31-33.51-59.14-13.2-86.74,20.31-27.6,59.14-33.51,86.74-13.2,27.6,20.31,33.51,59.14,13.2,86.74Zm16.49-101.88c-4.73,6.54-13.88,8.01-20.42,3.27-6.54-4.73-8.01-13.88-3.27-20.42s13.88-8.01,20.42-3.27,8.01,13.88,3.27,20.42Zm-5.05-40.5c0-9.01,7.3-16.31,16.31-16.31s16.31,7.3,16.31,16.31-7.3,16.31-16.31,16.31-16.31-7.3-16.31-16.31Zm27.72,40.46c-4.76-6.52-3.33-15.67,3.2-20.43,6.52-4.76,15.67-3.33,20.43,3.2,4.76,6.52,3.33,15.67-3.2,20.43-6.52,4.76-15.67,3.33-20.43-3.2Zm101.18,116.51c-27.84,19.97-66.6,13.59-86.57-14.25-19.97-27.84-13.59-66.6,14.25-86.57,27.84-19.97,66.6-13.59,86.57,14.25,19.97,27.84,13.59,66.6-14.25,86.57Zm31.18-137.6c-32.65,10.39-67.54-7.66-77.93-40.31-10.39-32.65,7.66-67.54,40.31-77.93,32.65-10.39,67.54,7.66,77.93,40.31,10.39,32.65-7.66,67.54-40.31,77.93Z"/>
  </g>
  <g class="cls-1">
    <path d="m492.95,251.31c-121.59,0-220.16,98.57-220.16,220.16s98.57,220.16,220.16,220.16,220.16-98.57,220.16-220.16-98.57-220.16-220.16-220.16Zm1.17,27c34.26.21,61.87,28.15,61.66,62.42-.21,34.26-28.15,61.87-62.42,61.66-34.26-.21-61.87-28.15-61.66-62.42.21-34.26,28.15-61.87,62.42-61.66Zm40.83,194.81c-7.68,2.51-15.93-1.68-18.44-9.35-2.51-7.68,1.68-15.93,9.35-18.44,7.68-2.51,15.93,1.68,18.44,9.35,2.51,7.68-1.68,15.93-9.35,18.44Zm-27.45-41.08c.02,8.08-6.52,14.63-14.59,14.65-8.08.02-14.63-6.52-14.65-14.59-.02-8.08,6.52-14.63,14.59-14.65,8.08-.02,14.63,6.52,14.65,14.59Zm-38.14,31.82c-2.48,7.68-10.72,11.9-18.41,9.42-7.68-2.48-11.9-10.72-9.42-18.41,2.48-7.68,10.72-11.9,18.41-9.42,7.68,2.48,11.9,10.72,9.42,18.41Zm-159.75-53.19c10.79-32.52,45.89-50.14,78.42-39.36,32.52,10.79,50.14,45.89,39.36,78.42-10.79,32.52-45.89,50.14-78.42,39.36-32.52-10.79-50.14-45.89-39.36-78.42Zm155.6,203.19c-20.31,27.6-59.14,33.51-86.74,13.2s-33.51-59.14-13.2-86.74c20.31-27.6,59.14-33.51,86.74-13.2,27.6,20.31,33.51,59.14,13.2,86.74Zm16.49-101.88c-4.73,6.54-13.88,8.01-20.42,3.27s-8.01-13.88-3.27-20.42,13.88-8.01,20.42-3.27,8.01,13.88,3.27,20.42Zm-5.05-40.5c0-9.01,7.3-16.31,16.31-16.31s16.31,7.3,16.31,16.31-7.3,16.31-16.31,16.31-16.31-7.3-16.31-16.31Zm27.72,40.46c-4.76-6.52-3.33-15.67,3.2-20.43,6.52-4.76,15.67-3.33,20.43,3.2,4.76,6.52,3.33,15.67-3.2,20.43-6.52,4.76-15.67,3.33-20.43-3.2Zm101.18,116.51c-27.84,19.97-66.6,13.59-86.57-14.25-19.97-27.84-13.59-66.6,14.25-86.57,27.84-19.97,66.6-13.59,86.57,14.25,19.97,27.84,13.59,66.6-14.25,86.57Zm31.18-137.6c-32.65,10.39-67.54-7.66-77.93-40.31-10.39-32.65,7.66-67.54,40.31-77.93,32.65-10.39,67.54,7.66,77.93,40.31,10.39,32.65-7.66,67.54-40.31,77.93Z"/>
  </g>
  <g class="cls-5">
    <path d="m280.29,502.22c14.96,107.04,106.87,189.42,218.03,189.42,71.19,0,134.47-33.79,174.71-86.2-12.46-3.43-25.3-7.14-38.43-11.11-3.61,13.28-11.63,25.46-23.69,34.11-27.84,19.97-66.6,13.59-86.57-14.25-12.89-17.97-14.79-40.48-7.04-59.56-7.44-2.77-14.91-5.6-22.43-8.49-9.76-3.76-19.4-7.55-28.91-11.38,20.01,21.39,22.61,54.65,4.62,79.1-20.31,27.6-59.14,33.51-86.74,13.2-27.6-20.31-33.51-59.14-13.2-86.74,11.74-15.95,29.67-24.64,48.05-25.22-17.92-7.72-35.23-15.48-51.86-23.25-4.17-.48-8.35-1.39-12.49-2.76-9.46-3.14-17.65-8.35-24.26-14.94"/>
  </g>
  <g class="cls-5">
    <g class="cls-7">
      <path d="m498.7,251.31c-121.59,0-220.16,98.57-220.16,220.16s98.57,220.16,220.16,220.16,220.16-98.57,220.16-220.16-98.57-220.16-220.16-220.16Zm1.17,27c34.26.21,61.87,28.15,61.66,62.42-.21,34.26-28.15,61.87-62.42,61.66s-61.87-28.15-61.66-62.42c.21-34.26,28.15-61.87,62.42-61.66Zm40.83,194.81c-7.68,2.51-15.93-1.68-18.44-9.35-2.51-7.68,1.68-15.93,9.35-18.44,7.68-2.51,15.93,1.68,18.44,9.35,2.51,7.68-1.68,15.93-9.35,18.44Zm-27.45-41.08c.02,8.08-6.52,14.63-14.59,14.65-8.08.02-14.63-6.52-14.65-14.59-.02-8.08,6.52-14.63,14.59-14.65,8.08-.02,14.63,6.52,14.65,14.59Zm-38.14,31.82c-2.48,7.68-10.72,11.9-18.41,9.42-7.68-2.48-11.9-10.72-9.42-18.41,2.48-7.68,10.72-11.9,18.41-9.42,7.68,2.48,11.9,10.72,9.42,18.41Zm-159.75-53.19c10.79-32.52,45.89-50.14,78.42-39.36,32.52,10.79,50.14,45.89,39.36,78.42-10.79,32.52-45.89,50.14-78.42,39.36-32.52-10.79-50.14-45.89-39.36-78.42Zm155.6,203.19c-20.31,27.6-59.14,33.51-86.74,13.2-27.6-20.31-33.51-59.14-13.2-86.74,20.31-27.6,59.14-33.51,86.74-13.2,27.6,20.31,33.51,59.14,13.2,86.74Zm16.49-101.88c-4.73,6.54-13.88,8.01-20.42,3.27-6.54-4.73-8.01-13.88-3.27-20.42s13.88-8.01,20.42-3.27,8.01,13.88,3.27,20.42Zm-5.05-40.5c0-9.01,7.3-16.31,16.31-16.31s16.31,7.3,16.31,16.31-7.3,16.31-16.31,16.31-16.31-7.3-16.31-16.31Zm27.72,40.46c-4.76-6.52-3.33-15.67,3.2-20.43,6.52-4.76,15.67-3.33,20.43,3.2,4.76,6.52,3.33,15.67-3.2,20.43-6.52,4.76-15.67,3.33-20.43-3.2Zm101.18,116.51c-27.84,19.97-66.6,13.59-86.57-14.25-19.97-27.84-13.59-66.6,14.25-86.57,27.84-19.97,66.6-13.59,86.57,14.25,19.97,27.84,13.59,66.6-14.25,86.57Zm31.18-137.6c-32.65,10.39-67.54-7.66-77.93-40.31-10.39-32.65,7.66-67.54,40.31-77.93,32.65-10.39,67.54,7.66,77.93,40.31,10.39,32.65-7.66,67.54-40.31,77.93Z"/>
    </g>
  </g>
  <g class="cls-5">
    <g class="cls-3">
      <path d="m498.7,251.31c-121.59,0-220.16,98.57-220.16,220.16s98.57,220.16,220.16,220.16,220.16-98.57,220.16-220.16-98.57-220.16-220.16-220.16Zm1.17,27c34.26.21,61.87,28.15,61.66,62.42-.21,34.26-28.15,61.87-62.42,61.66-34.26-.21-61.87-28.15-61.66-62.42.21-34.26,28.15-61.87,62.42-61.66Zm40.83,194.81c-7.68,2.51-15.93-1.68-18.44-9.35-2.51-7.68,1.68-15.93,9.35-18.44,7.68-2.51,15.93,1.68,18.44,9.35,2.51,7.68-1.68,15.93-9.35,18.44Zm-27.45-41.08c.02,8.08-6.52,14.63-14.59,14.65-8.08.02-14.63-6.52-14.65-14.59-.02-8.08,6.52-14.63,14.59-14.65,8.08-.02,14.63,6.52,14.65,14.59Zm-38.14,31.82c-2.48,7.68-10.72,11.9-18.41,9.42-7.68-2.48-11.9-10.72-9.42-18.41,2.48-7.68,10.72-11.9,18.41-9.42,7.68,2.48,11.9,10.72,9.42,18.41Zm-159.75-53.19c10.79-32.52,45.89-50.14,78.42-39.36,32.52,10.79,50.14,45.89,39.36,78.42-10.79,32.52-45.89,50.14-78.42,39.36-32.52-10.79-50.14-45.89-39.36-78.42Zm155.6,203.19c-20.31,27.6-59.14,33.51-86.74,13.2s-33.51-59.14-13.2-86.74c20.31-27.6,59.14-33.51,86.74-13.2,27.6,20.31,33.51,59.14,13.2,86.74Zm16.49-101.88c-4.73,6.54-13.88,8.01-20.42,3.27s-8.01-13.88-3.27-20.42,13.88-8.01,20.42-3.27,8.01,13.88,3.27,20.42Zm-5.05-40.5c0-9.01,7.3-16.31,16.31-16.31s16.31,7.3,16.31,16.31-7.3,16.31-16.31,16.31-16.31-7.3-16.31-16.31Zm27.72,40.46c-4.76-6.52-3.33-15.67,3.2-20.43,6.52-4.76,15.67-3.33,20.43,3.2,4.76,6.52,3.33,15.67-3.2,20.43-6.52,4.76-15.67,3.33-20.43-3.2Zm101.18,116.51c-27.84,19.97-66.6,13.59-86.57-14.25-19.97-27.84-13.59-66.6,14.25-86.57,27.84-19.97,66.6-13.59,86.57,14.25,19.97,27.84,13.59,66.6-14.25,86.57Zm31.18-137.6c-32.65,10.39-67.54-7.66-77.93-40.31-10.39-32.65,7.66-67.54,40.31-77.93,32.65-10.39,67.54,7.66,77.93,40.31,10.39,32.65-7.66,67.54-40.31,77.93Z"/>
    </g>
  </g>
</svg>